<svg xmlns="http://www.w3.org/2000/svg" width="48" height="48" viewBox="0 0 48 48" fill="none"><path d="M38.2 27.2H43.2M43.2 27.2V32.2M43.2 27.2L33.2 37.2M34.2 30.2H29.2C28.0954 30.2 27.2 31.0954 27.2 32.2V41.2C27.2 42.3045 28.0954 43.2 29.2 43.2H38.2C39.3045 43.2 40.2 42.3045 40.2 41.2V36.2" stroke="#7367F0" stroke-width="2" stroke-linecap="round" stroke-linejoin="round"></path><path d="M23.7995 41.7133V23.7995H33.9323C33.9358 23.9852 33.9487 24.1667 33.9487 24.3538C33.9487 24.8749 34.3704 25.2966 34.8916 25.2966C35.4127 25.2966 35.8344 24.8749 35.8344 24.3538C35.8344 24.1667 35.8202 23.9853 35.8168 23.7995H41.7133H43.0447H43.5989C43.5989 12.8823 34.7166 4 23.7995 4H21.9138V4.09553C11.8784 5.0489 4 13.5188 4 23.7995C4 34.7166 12.8823 43.5989 23.7995 43.5989C24.3206 43.5989 24.7423 43.1772 24.7423 42.6561C24.7423 42.135 24.3206 41.7133 23.7995 41.7133ZM21.9138 41.4011C17.2165 39.8836 13.6502 32.8226 13.6502 24.3538C13.6502 24.1667 13.6632 23.9852 13.6666 23.7995H21.9138V41.4011ZM13.7624 21.9138C14.3716 14.5584 17.6769 8.6759 21.9138 7.30729V21.9138L13.7624 21.9138ZM23.7995 21.9138V6.99514C28.9103 6.99514 33.1394 13.4962 33.8365 21.9138H23.7995ZM41.612 21.9138H35.7267C35.1637 14.847 32.2005 8.97554 28.1842 6.45106C35.3539 8.26521 40.8214 14.3942 41.612 21.9138ZM19.4148 6.45106C15.3985 8.97554 12.4353 14.847 11.8723 21.9138H5.98702C6.77758 14.3942 12.2451 8.26521 19.4148 6.45106ZM5.88566 23.7995H11.7821C11.7788 23.9853 11.7646 24.1667 11.7646 24.3538C11.7646 31.0791 13.9371 37.0012 17.2149 40.4433C10.5892 37.8122 5.88566 31.3509 5.88566 23.7995Z" fill="#7367F0"></path></svg>